<?xml version="1.0" standalone="no"?>
<!DOCTYPE svg PUBLIC "-//W3C//DTD SVG 20010904//EN"
 "http://www.w3.org/TR/2001/REC-SVG-20010904/DTD/svg10.dtd">
<svg version="1.0" xmlns="http://www.w3.org/2000/svg"
 width="402.000000pt" height="402.000000pt" viewBox="0 0 402.000000 402.000000"
 preserveAspectRatio="xMidYMid meet">
<metadata>
Created by potrace 1.11, written by Peter Selinger 2001-2013
</metadata>
<g transform="translate(0.000000,402.000000) scale(0.100000,-0.100000)"
fill="#000000" stroke="none">
<path d="M1568 3125 c-2 -2 -32 -6 -68 -9 -197 -17 -401 -102 -540 -226 -25
-22 -47 -40 -50 -40 -3 0 -5 54 -5 120 l2 120 -299 0 -298 0 0 -1080 0 -1080
312 2 312 3 1 595 c1 541 3 601 20 665 37 145 94 230 197 299 99 65 158 81
303 79 122 -1 149 -7 231 -50 92 -49 167 -172 190 -313 4 -25 9 -319 10 -655
1 -335 2 -613 3 -617 1 -5 141 -8 311 -8 l311 0 -2 673 c-1 690 -5 772 -43
912 -21 78 -33 111 -63 170 -98 196 -275 337 -504 399 -52 14 -132 28 -179 32
-47 3 -100 7 -117 8 -18 2 -34 2 -35 1z"/>
<path d="M3230 1669 c-64 -12 -159 -62 -204 -106 -21 -21 -53 -67 -69 -103
-52 -110 -45 -268 16 -373 35 -59 108 -124 175 -155 51 -24 69 -27 162 -27 94
1 111 3 162 28 112 55 195 160 216 275 12 67 6 164 -14 222 -56 167 -254 274
-444 239z"/>
</g>
</svg>
